# xmcd
#
# Track frame offsets:
#	150
#	26117
#	43466
#	61886
#	82422
#	99743
#	125936
#	173562
#	193157
#	206681
#
# Disc length: 3092 seconds
#
# Revision: 0
# Processed by: cddbd v1.4PL0 Copyright (c) Steve Scherf et al.
# Submitted via: audiograbber 1.80
#
DISCID=9d0c120a
DTITLE=James Cotton - Fire Down Under The Hill
DYEAR=1900
DGENRE=
TTITLE0=Cotton Jump Boogie
TTITLE1=That's All Right
TTITLE2=Young Fashioned Ways
TTITLE3=Boot Knockin' Boogie
TTITLE4=Lightning
TTITLE5=Feel Like Going Home
TTITLE6=Fire Down Under the Hill
TTITLE7=Woman Wanted
TTITLE8=Reconsider Baby
TTITLE9=Something to Remember You By
EXTD=
EXTT0=
EXTT1=
EXTT2=
EXTT3=
EXTT4=
EXTT5=
EXTT6=
EXTT7=
EXTT8=
EXTT9=
PLAYORDER=
